<svg width="58" height="45" viewBox="0 0 58 45" fill="none" xmlns="http://www.w3.org/2000/svg">
<path d="M58 3.2081C58 2.35726 57.6113 1.54127 56.9194 0.939632C56.2274 0.337996 55.289 0 54.3104 0H19.8745C18.8959 0 17.9575 0.337996 17.2656 0.939632C16.5736 1.54127 16.1849 2.35726 16.1849 3.2081V20.318C16.1849 21.1688 16.5736 21.9848 17.2656 22.5865C17.9575 23.1881 18.8959 23.5261 19.8745 23.5261H54.3104C55.289 23.5261 56.2274 23.1881 56.9194 22.5865C57.6113 21.9848 58 21.1688 58 20.318V3.2081ZM53.0806 18.7139C53.0806 18.8557 53.0158 18.9917 52.9005 19.092C52.7851 19.1923 52.6287 19.2486 52.4656 19.2486H21.7193C21.5562 19.2486 21.3998 19.1923 21.2844 19.092C21.1691 18.9917 21.1043 18.8557 21.1043 18.7139V4.87632C21.1043 4.73451 21.1691 4.59851 21.2844 4.49824C21.3998 4.39796 21.5562 4.34163 21.7193 4.34163H52.4656C52.6287 4.34163 52.7851 4.39796 52.9005 4.49824C53.0158 4.59851 53.0806 4.73451 53.0806 4.87632V18.7139Z" fill="#2F4B7C"/>
<path d="M32.173 11.8272C32.173 12.9617 32.6913 14.0497 33.6139 14.8518C34.5365 15.654 35.7877 16.1047 37.0925 16.1047C38.3972 16.1047 39.6484 15.654 40.571 14.8518C41.4936 14.0497 42.0119 12.9617 42.0119 11.8272C42.0119 10.6927 41.4936 9.60476 40.571 8.80258C39.6484 8.00039 38.3972 7.54974 37.0925 7.54974C35.7877 7.54974 34.5365 8.00039 33.6139 8.80258C32.6913 9.60476 32.173 10.6927 32.173 11.8272ZM49.145 32.1452L40.4623 34.6475C40.3783 34.6692 40.3013 34.7075 40.2373 34.7595C40.1732 34.8114 40.1239 34.8756 40.0933 34.9469C39.6981 35.6894 39.0663 36.3178 38.2729 36.7575C37.4794 37.1972 36.5575 37.4299 35.6166 37.4279H25.7778C25.4516 37.4279 25.1388 37.3152 24.9081 37.1146C24.6775 36.9141 24.5479 36.6421 24.5479 36.3585C24.5479 36.0749 24.6775 35.8029 24.9081 35.6023C25.1388 35.4018 25.4516 35.2891 25.7778 35.2891H35.6166C36.269 35.2891 36.8946 35.0638 37.3559 34.6627C37.8172 34.2616 38.0763 33.7176 38.0763 33.1504C38.0763 32.5832 37.8172 32.0392 37.3559 31.6381C36.8946 31.237 36.269 31.0117 35.6166 31.0117H27.0076C24.1806 29.0955 20.7478 27.9761 17.1688 27.8036H12.1018C10.558 27.8545 9.04961 28.2208 7.6989 28.8729L0.319765 32.1024C0.22272 32.1486 0.141796 32.2167 0.0855202 32.2995C0.0292441 32.3823 -0.000299645 32.4767 2.29133e-06 32.5729V44.1221C0.00220321 44.2178 0.032795 44.3114 0.0888155 44.3939C0.144836 44.4763 0.224387 44.5448 0.319765 44.5926C0.413246 44.6395 0.519286 44.6643 0.627229 44.6643C0.735171 44.6643 0.841212 44.6395 0.934693 44.5926L8.85496 40.3152C9.16354 40.1472 9.51114 40.0409 9.8727 40.0039C10.2343 39.9669 10.6007 40.0002 10.9457 40.1013C35.5428 47.2874 27.2536 47.3088 54.9008 35.1608C55.1271 35.0835 55.3234 34.9518 55.4667 34.781C55.61 34.6102 55.6944 34.4074 55.7099 34.1964C55.7253 33.9854 55.6713 33.7749 55.5542 33.5897C55.437 33.4044 55.2616 33.252 55.0483 33.1504C54.2481 32.5536 53.2837 32.1473 52.2491 31.9711C51.2145 31.7949 50.145 31.8549 49.145 32.1452Z" fill="#2F4B7C"/>
</svg>
