<svg width="40" height="46" viewBox="0 0 40 46" fill="none" xmlns="http://www.w3.org/2000/svg">
<path d="M6.42857 45C4.98882 45 3.60805 44.4849 2.58999 43.5681C1.57194 42.6512 1 41.4077 1 40.1111V1H25.4286L39 13.2222V40.1111C39 41.4077 38.4281 42.6512 37.41 43.5681C36.392 44.4849 35.0112 45 33.5714 45H6.42857Z" fill="white"/>
<path d="M22.7143 1V15.6667H39" fill="white"/>
<path d="M22.7143 1V15.6667H39M6.42857 45C4.98882 45 3.60805 44.4849 2.58999 43.5681C1.57194 42.6512 1 41.4077 1 40.1111V1H25.4286L39 13.2222V40.1111C39 41.4077 38.4281 42.6512 37.41 43.5681C36.392 44.4849 35.0112 45 33.5714 45H6.42857Z" stroke="#2F4B7C" stroke-width="2" stroke-linejoin="round"/>
</svg>
