<svg width="52" height="57" viewBox="0 0 52 57" fill="none" xmlns="http://www.w3.org/2000/svg">
<path d="M8.14286 56C6.24845 56 4.43164 55.3562 3.09209 54.2101C1.75255 53.064 1 51.5097 1 49.8889V1H33.1429L51 16.2778V49.8889C51 51.5097 50.2475 53.064 48.9079 54.2101C47.5684 55.3562 45.7515 56 43.8571 56H8.14286Z" fill="#709FB0"/>
<path d="M29.5714 1V19.3333H51" fill="#709FB0"/>
<path d="M29.5714 1V19.3333H51M8.14286 56C6.24845 56 4.43164 55.3562 3.09209 54.2101C1.75255 53.064 1 51.5097 1 49.8889V1H33.1429L51 16.2778V49.8889C51 51.5097 50.2474 53.064 48.9079 54.2101C47.5684 55.3562 45.7515 56 43.8571 56H8.14286Z" stroke="black" stroke-linejoin="round"/>
</svg>
