<svg width="66" height="58" viewBox="0 0 66 58" fill="none" xmlns="http://www.w3.org/2000/svg">
<path d="M8.98722 56.6429L1 49.8572V20C7.38978 20 12.1821 22.7143 12.1821 28.1429V36.2857M57.0128 56.6429L65 49.8572V20C58.6102 20 53.8179 22.7143 53.8179 28.1429V36.2857M15.8754 48.0576L12.6486 45.3161C8.77636 42.0264 9.74441 37.9143 13.6166 34.6219L26.5655 45.6256V58M50.1246 48.0576L53.3514 45.3161C57.2236 42.0264 56.2588 37.9143 52.3834 34.6219L39.4345 45.6256V58M39.3387 9.14286V1H26.5591V9.14286H16.9744V20H26.5591V28.1429H39.3387V20H48.9233V9.14286H39.3387Z" stroke="#2F4B7C" stroke-width="2"/>
</svg>
