<svg width="62" height="52" viewBox="0 0 62 52" fill="none" xmlns="http://www.w3.org/2000/svg">
<path d="M34.8981 36.654C33.8128 35.6866 32.445 35.1548 31.0313 35.1506C29.6177 35.1464 28.2471 35.67 27.1567 36.631V36.654M38.5935 32.1666C36.4592 30.2862 33.7788 29.2577 31.012 29.2577C28.2453 29.2577 25.5648 30.2862 23.4306 32.1666M42.2365 27.4574C39.0768 24.6621 35.1026 23.1325 30.9997 23.1325C26.8968 23.1325 22.9227 24.6621 19.763 27.4574M32.1843 7.95038C29.1074 7.78607 23.0614 1 19.5845 1H4.35394C3.46446 1 2.61141 1.37739 1.98245 2.04914C1.35349 2.7209 1.00014 3.63199 1.00014 4.58199V16.6425H60.9993V11.023C61.0075 10.6281 60.9427 10.2354 60.8087 9.8672C60.6748 9.49904 60.4742 9.16269 60.2184 8.87735C59.9627 8.59201 59.6568 8.36328 59.3183 8.20423C58.9798 8.04517 58.6152 7.95892 58.2455 7.95038H32.1843ZM60.9993 16.626H1.00014V47.3851C0.996083 47.8555 1.07882 48.3222 1.24362 48.7584C1.40843 49.1947 1.65207 49.592 1.96065 49.9277C2.26922 50.2633 2.63669 50.5308 3.04205 50.7148C3.44741 50.8988 3.88274 50.9957 4.32317 51H57.6455C58.535 51 59.388 50.6226 60.017 49.9509C60.646 49.2791 60.9993 48.368 60.9993 47.418V16.626ZM31.012 39.3027C30.5313 39.3027 30.0613 39.4549 29.6616 39.7402C29.2619 40.0255 28.9503 40.4309 28.7663 40.9053C28.5824 41.3797 28.5342 41.9017 28.628 42.4053C28.7218 42.9089 28.9533 43.3714 29.2932 43.7345C29.6332 44.0976 30.0663 44.3448 30.5378 44.445C31.0093 44.5452 31.4981 44.4938 31.9422 44.2973C32.3864 44.1008 32.766 43.768 33.0331 43.3411C33.3002 42.9142 33.4428 42.4122 33.4428 41.8988C33.4428 41.2102 33.1867 40.5499 32.7308 40.0631C32.275 39.5762 31.6567 39.3027 31.012 39.3027Z" stroke="#2F4B7C" stroke-width="2" stroke-linecap="round" stroke-linejoin="round"/>
</svg>
