<svg width="50" height="50" viewBox="0 0 50 50" fill="none" xmlns="http://www.w3.org/2000/svg">
<path d="M11.863 16.9836C12.4964 12.9647 13.5916 9.34436 15.043 6.38401C16.352 3.71188 18.0145 1.45997 19.9621 0C15.1319 1.0181 10.7039 3.47006 7.23425 7.04803C3.76457 10.626 1.4078 15.1705 0.459835 20.111C1.99264 19.3782 3.58799 18.7903 5.22589 18.3547C7.40876 17.7591 9.62526 17.3003 11.863 16.9809M0.0534276 26.7132C-0.0178092 25.5722 -0.0178092 24.4278 0.0534276 23.2868C0.143154 23.2222 0.238159 23.1575 0.338441 23.0929C1.57878 22.2767 3.45247 21.4928 5.88037 20.8167C7.73739 20.3118 9.62005 19.9107 11.5199 19.6153C11.1528 23.1953 11.1528 26.8047 11.5199 30.3847C9.62094 30.0892 7.73916 29.6881 5.883 29.1833C3.45511 28.5045 1.57614 27.7233 0.338441 26.9071L0.0534276 26.7132ZM0.457197 29.8917C1.40581 34.832 3.76318 39.3762 7.23333 42.9537C10.7035 46.5312 15.1317 48.9826 19.9621 50C18.0145 48.54 16.352 46.2881 15.043 43.616C13.5916 40.6529 12.4937 37.0353 11.863 33.0164C9.62526 32.697 7.40876 32.2382 5.22589 31.6426C3.58727 31.2089 1.99103 30.6228 0.457197 29.8917ZM30.0379 50C34.8683 48.9826 39.2965 46.5312 42.7667 42.9537C46.2368 39.3762 48.5942 34.832 49.5428 29.8917C48.0098 30.6226 46.4145 31.2087 44.7768 31.6426C42.593 32.2383 40.3756 32.6971 38.137 33.0164C37.5036 37.0353 36.4085 40.6529 34.957 43.616C33.648 46.2881 31.9855 48.54 30.0379 50ZM49.9466 23.2868C50.0178 24.4278 50.0178 25.5722 49.9466 26.7132L49.6642 26.9071C48.4239 27.7233 46.5475 28.5072 44.117 29.1833C42.4491 29.6466 40.5543 30.0506 38.4801 30.3847C38.8472 26.8047 38.8472 23.1953 38.4801 19.6153C40.5543 19.9467 42.4491 20.3534 44.117 20.8167C46.5475 21.4928 48.4239 22.2767 49.6642 23.0929C49.7645 23.1575 49.8586 23.2222 49.9466 23.2868ZM49.5428 20.111C48.5947 15.1702 46.2375 10.6254 42.7673 7.04738C39.2971 3.46937 34.8686 1.01762 30.0379 0C31.9855 1.45997 33.648 3.71188 34.957 6.38401C36.4085 9.34705 37.5063 12.9647 38.137 16.9836C40.3747 17.303 42.5913 17.7618 44.7741 18.3574C46.5924 18.8611 48.2048 19.4456 49.5428 20.1083M14.4545 16.6442C15.0641 13.1559 16.0432 10.0501 17.2783 7.52613C19.1388 3.72805 21.4347 1.50576 23.7491 0.915849V16.0759C20.6437 16.1092 17.5418 16.3007 14.4545 16.6442ZM26.2509 16.0759V0.915849C28.5653 1.50846 30.8612 3.72805 32.7218 7.52613C33.9568 10.0501 34.9359 13.1559 35.5455 16.6442C32.4583 16.2998 29.3563 16.1101 26.2509 16.0759ZM14.0745 19.2571C17.2863 18.8743 20.5157 18.6639 23.7491 18.6268V31.3732C20.5165 31.336 17.2881 31.1256 14.0771 30.7429C13.8568 28.8369 13.7475 26.9192 13.7499 25C13.7499 23.0175 13.8607 21.0942 14.0745 19.2571ZM35.9255 19.2571C32.7137 18.8743 29.4844 18.6639 26.2509 18.6268V31.3732C29.4844 31.3361 32.7137 31.1257 35.9255 30.7429C36.1366 28.9058 36.2501 26.9825 36.2501 25C36.2501 23.0175 36.1366 21.0942 35.9255 19.2571ZM14.4545 33.3558C17.3521 33.6871 20.482 33.8837 23.7491 33.9215V49.0841C21.4347 48.4915 19.1388 46.2719 17.2783 42.4739C16.0432 39.9499 15.0641 36.8441 14.4545 33.3558ZM26.2509 33.9241V49.0841C28.5653 48.4915 30.8612 46.2719 32.7218 42.4739C33.9568 39.9499 34.9359 36.8441 35.5455 33.3558C32.4582 33.6993 29.3563 33.8908 26.2509 33.9241Z" fill="#2F4B7C"/>
</svg>
